<svg width="32" height="32" viewBox="0 0 32 32" xmlns="http://www.w3.org/2000/svg">
  <defs>
    <linearGradient id="goldGrad" x1="0%" y1="0%" x2="100%" y2="100%">
      <stop offset="0%" style="stop-color:#D4AF37"/>
      <stop offset="100%" style="stop-color:#B8860B"/>
    </linearGradient>
    <linearGradient id="bronzeGrad" x1="0%" y1="0%" x2="100%" y2="100%">
      <stop offset="0%" style="stop-color:#CD7F32"/>
      <stop offset="100%" style="stop-color:#A0522D"/>
    </linearGradient>
  </defs>
  
  <!-- Background -->
  <rect width="32" height="32" fill="#0b1020" rx="6"/>
  
  <!-- Loom frame -->
  <rect x="4" y="4" width="24" height="24" fill="none" stroke="url(#goldGrad)" stroke-width="1.5" rx="2"/>
  
  <!-- Weaving threads -->
  <line x1="8" y1="4" x2="8" y2="28" stroke="url(#goldGrad)" stroke-width="0.5" opacity="0.6"/>
  <line x1="12" y1="4" x2="12" y2="28" stroke="url(#goldGrad)" stroke-width="0.5" opacity="0.6"/>
  <line x1="16" y1="4" x2="16" y2="28" stroke="url(#goldGrad)" stroke-width="0.5" opacity="0.6"/>
  <line x1="20" y1="4" x2="20" y2="28" stroke="url(#goldGrad)" stroke-width="0.5" opacity="0.6"/>
  <line x1="24" y1="4" x2="24" y2="28" stroke="url(#goldGrad)" stroke-width="0.5" opacity="0.6"/>
  
  <!-- Horizontal threads -->
  <path d="M4,10 Q8,8 12,10 T20,10 T28,10" stroke="url(#bronzeGrad)" stroke-width="1" fill="none"/>
  <path d="M4,16 Q8,18 12,16 T20,16 T28,16" stroke="url(#goldGrad)" stroke-width="1" fill="none"/>
  <path d="M4,22 Q8,20 12,22 T20,22 T28,22" stroke="url(#bronzeGrad)" stroke-width="1" fill="none"/>
  
  <!-- Central symbol -->
  <circle cx="16" cy="16" r="4" fill="none" stroke="url(#goldGrad)" stroke-width="1"/>
  <path d="M16,12 L18,16 L16,20 L14,16 Z" fill="url(#goldGrad)"/>
</svg>
